<mxfile host="app.diagrams.net" agent="Mozilla/5.0 (Windows NT 10.0; Win64; x64) AppleWebKit/537.36 (KHTML, like Gecko) Chrome/132.0.0.0 Safari/537.36 Edg/132.0.0.0" version="25.0.1">
  <diagram name="Страница — 1" id="LXo4-B0sKtDkMDELj0Gz">
    <mxGraphModel dx="704" dy="787" grid="1" gridSize="10" guides="1" tooltips="1" connect="1" arrows="1" fold="1" page="1" pageScale="1" pageWidth="827" pageHeight="1169" math="0" shadow="0">
      <root>
        <mxCell id="0" />
        <mxCell id="1" parent="0" />
        <mxCell id="CGueFhNoT2K6mEF5fFYu-1" value="Начало" style="strokeWidth=2;html=1;shape=mxgraph.flowchart.start_1;whiteSpace=wrap;" vertex="1" parent="1">
          <mxGeometry x="80" y="80.00000000000009" width="200" height="50" as="geometry" />
        </mxCell>
        <mxCell id="CGueFhNoT2K6mEF5fFYu-2" value="" style="edgeStyle=orthogonalEdgeStyle;rounded=0;orthogonalLoop=1;jettySize=auto;html=1;exitX=0.5;exitY=1;exitDx=0;exitDy=0;exitPerimeter=0;entryX=0.5;entryY=0;entryDx=0;entryDy=0;" edge="1" source="CGueFhNoT2K6mEF5fFYu-1" target="CGueFhNoT2K6mEF5fFYu-3" parent="1">
          <mxGeometry relative="1" as="geometry">
            <mxPoint x="179.69" y="130.00000000000006" as="sourcePoint" />
            <mxPoint x="179.69" y="170.00000000000006" as="targetPoint" />
            <Array as="points" />
          </mxGeometry>
        </mxCell>
        <mxCell id="CGueFhNoT2K6mEF5fFYu-5" value="" style="edgeStyle=orthogonalEdgeStyle;rounded=0;orthogonalLoop=1;jettySize=auto;html=1;" edge="1" parent="1" source="CGueFhNoT2K6mEF5fFYu-3" target="CGueFhNoT2K6mEF5fFYu-4">
          <mxGeometry relative="1" as="geometry" />
        </mxCell>
        <mxCell id="CGueFhNoT2K6mEF5fFYu-3" value="&lt;span style=&quot;font-size:12.0pt;line-height:107%;&lt;br/&gt;font-family:&amp;quot;Times New Roman&amp;quot;,serif;mso-fareast-font-family:Calibri;mso-fareast-theme-font:&lt;br/&gt;minor-latin;mso-ansi-language:RU;mso-fareast-language:EN-US;mso-bidi-language:&lt;br/&gt;AR-SA;mso-bidi-font-weight:bold&quot;&gt;&lt;span style=&quot;font-size:12.0pt;line-height:107%;&lt;br/&gt;font-family:&amp;quot;Times New Roman&amp;quot;,serif;mso-fareast-font-family:Calibri;mso-fareast-theme-font:&lt;br/&gt;minor-latin;mso-ansi-language:RU;mso-fareast-language:EN-US;mso-bidi-language:&lt;br/&gt;AR-SA;mso-bidi-font-weight:bold&quot;&gt;binary_string = input(&quot;Введите двоичное&lt;br/&gt;число: &quot;)&lt;/span&gt;&lt;/span&gt;" style="rounded=1;whiteSpace=wrap;html=1;strokeWidth=2;" vertex="1" parent="1">
          <mxGeometry x="80" y="170" width="200" height="100" as="geometry" />
        </mxCell>
        <mxCell id="CGueFhNoT2K6mEF5fFYu-7" value="" style="edgeStyle=orthogonalEdgeStyle;rounded=0;orthogonalLoop=1;jettySize=auto;html=1;" edge="1" parent="1" source="CGueFhNoT2K6mEF5fFYu-4" target="CGueFhNoT2K6mEF5fFYu-6">
          <mxGeometry relative="1" as="geometry" />
        </mxCell>
        <mxCell id="CGueFhNoT2K6mEF5fFYu-4" value="Введите двоичное число: ввод binary_string" style="shape=parallelogram;perimeter=parallelogramPerimeter;whiteSpace=wrap;html=1;fixedSize=1;rounded=1;strokeWidth=2;" vertex="1" parent="1">
          <mxGeometry x="80" y="330" width="200" height="100" as="geometry" />
        </mxCell>
        <mxCell id="CGueFhNoT2K6mEF5fFYu-9" value="" style="edgeStyle=orthogonalEdgeStyle;rounded=0;orthogonalLoop=1;jettySize=auto;html=1;" edge="1" parent="1" source="CGueFhNoT2K6mEF5fFYu-6" target="CGueFhNoT2K6mEF5fFYu-8">
          <mxGeometry relative="1" as="geometry" />
        </mxCell>
        <mxCell id="CGueFhNoT2K6mEF5fFYu-6" value="&lt;div&gt;&lt;span style=&quot;font-size:12.0pt;line-height:&lt;br/&gt;107%;font-family:&amp;quot;Times New Roman&amp;quot;,serif;mso-fareast-font-family:Calibri;&lt;br/&gt;mso-fareast-theme-font:minor-latin;mso-ansi-language:EN-US;mso-fareast-language:&lt;br/&gt;EN-US;mso-bidi-language:AR-SA;mso-bidi-font-weight:bold&quot; lang=&quot;EN-US&quot;&gt;decimal_number =&lt;br/&gt;int(binary_string, 2)&lt;/span&gt;&lt;/div&gt;&lt;div&gt;&lt;span style=&quot;font-size:12.0pt;line-height:&lt;br/&gt;107%;font-family:&amp;quot;Times New Roman&amp;quot;,serif;mso-fareast-font-family:Calibri;&lt;br/&gt;mso-fareast-theme-font:minor-latin;mso-ansi-language:EN-US;mso-fareast-language:&lt;br/&gt;EN-US;mso-bidi-language:AR-SA;mso-bidi-font-weight:bold&quot; lang=&quot;EN-US&quot;&gt;print(&lt;/span&gt;&lt;span style=&quot;font-family: &amp;quot;Times New Roman&amp;quot;, serif; font-size: 12pt; background-color: initial;&quot;&gt;&quot;Десятичная запись:&quot;, decimal_number&lt;/span&gt;&lt;span style=&quot;font-family: &amp;quot;Times New Roman&amp;quot;, serif; font-size: 12pt; background-color: initial;&quot;&gt;)&lt;/span&gt;&lt;/div&gt;" style="whiteSpace=wrap;html=1;rounded=1;strokeWidth=2;" vertex="1" parent="1">
          <mxGeometry x="80" y="490" width="200" height="100" as="geometry" />
        </mxCell>
        <mxCell id="CGueFhNoT2K6mEF5fFYu-8" value="&lt;span style=&quot;font-size:12.0pt;line-height:107%;&lt;br/&gt;font-family:&amp;quot;Times New Roman&amp;quot;,serif;mso-fareast-font-family:Calibri;mso-fareast-theme-font:&lt;br/&gt;minor-latin;mso-ansi-language:RU;mso-fareast-language:EN-US;mso-bidi-language:&lt;br/&gt;AR-SA;mso-bidi-font-weight:bold&quot;&gt;Десятичная запись:&lt;/span&gt;&lt;div&gt;&lt;span style=&quot;font-size:12.0pt;line-height:107%;&lt;br/&gt;font-family:&amp;quot;Times New Roman&amp;quot;,serif;mso-fareast-font-family:Calibri;mso-fareast-theme-font:&lt;br/&gt;minor-latin;mso-ansi-language:RU;mso-fareast-language:EN-US;mso-bidi-language:&lt;br/&gt;AR-SA;mso-bidi-font-weight:bold&quot;&gt;вывод decimal_number&lt;/span&gt;&lt;/div&gt;" style="shape=parallelogram;perimeter=parallelogramPerimeter;whiteSpace=wrap;html=1;fixedSize=1;rounded=1;strokeWidth=2;" vertex="1" parent="1">
          <mxGeometry x="80" y="650" width="200" height="100" as="geometry" />
        </mxCell>
        <mxCell id="CGueFhNoT2K6mEF5fFYu-10" value="Конец" style="strokeWidth=2;html=1;shape=mxgraph.flowchart.start_1;whiteSpace=wrap;" vertex="1" parent="1">
          <mxGeometry x="80" y="790" width="200" height="50" as="geometry" />
        </mxCell>
        <mxCell id="CGueFhNoT2K6mEF5fFYu-11" value="" style="edgeStyle=orthogonalEdgeStyle;rounded=0;orthogonalLoop=1;jettySize=auto;html=1;" edge="1" parent="1">
          <mxGeometry relative="1" as="geometry">
            <mxPoint x="179.69" y="750" as="sourcePoint" />
            <mxPoint x="179.69" y="790" as="targetPoint" />
            <Array as="points">
              <mxPoint x="179.69" y="771" />
              <mxPoint x="179.69" y="771" />
            </Array>
          </mxGeometry>
        </mxCell>
      </root>
    </mxGraphModel>
  </diagram>
</mxfile>
